<svg xmlns="http://www.w3.org/2000/svg" viewBox="0 0 260 720" role="img" aria-labelledby="title desc">
  <title id="title">Matte grey styling mannequin</title>
  <desc id="desc">Front-facing neutral mannequin silhouette for the wardrobe styling studio.</desc>
  <defs>
    <linearGradient id="body" x1="0" x2="1" y1="0" y2="1">
      <stop offset="0%" stop-color="#d8dde8"/>
      <stop offset="48%" stop-color="#9aa3b5"/>
      <stop offset="100%" stop-color="#606a7d"/>
    </linearGradient>
    <linearGradient id="shadow" x1="0" x2="1" y1="0" y2="0">
      <stop offset="0%" stop-color="#ffffff" stop-opacity="0.38"/>
      <stop offset="55%" stop-color="#ffffff" stop-opacity="0"/>
      <stop offset="100%" stop-color="#111827" stop-opacity="0.28"/>
    </linearGradient>
    <filter id="soft-shadow" x="-40%" y="-20%" width="180%" height="140%">
      <feDropShadow dx="0" dy="18" stdDeviation="16" flood-color="#000000" flood-opacity="0.35"/>
    </filter>
  </defs>
  <g filter="url(#soft-shadow)">
    <ellipse cx="130" cy="699" rx="74" ry="13" fill="#030712" opacity="0.45"/>
    <path fill="url(#body)" d="M130 28c31 0 52 23 52 54 0 25-14 45-35 52l3 25c31 6 54 27 66 61 15 43 19 105 20 174 1 50-5 101-15 153-4 22-4 46-1 70l5 42c2 14-8 27-22 29-15 2-28-7-31-22l-28-141c-2-11-8-18-14-18s-12 7-14 18L88 666c-3 15-16 24-31 22-14-2-24-15-22-29l5-42c3-24 3-48-1-70-10-52-16-103-15-153 1-69 5-131 20-174 12-34 35-55 66-61l3-25c-21-7-35-27-35-52 0-31 21-54 52-54z"/>
    <path fill="url(#shadow)" d="M130 28c31 0 52 23 52 54 0 25-14 45-35 52l3 25c31 6 54 27 66 61 15 43 19 105 20 174 1 50-5 101-15 153-4 22-4 46-1 70l5 42c2 14-8 27-22 29-15 2-28-7-31-22l-28-141c-2-11-8-18-14-18s-12 7-14 18L88 666c-3 15-16 24-31 22-14-2-24-15-22-29l5-42c3-24 3-48-1-70-10-52-16-103-15-153 1-69 5-131 20-174 12-34 35-55 66-61l3-25c-21-7-35-27-35-52 0-31 21-54 52-54z"/>
    <path fill="#f8fafc" opacity="0.36" d="M109 178c-18 9-31 24-39 46-12 35-16 91-17 168-1 39 4 88 14 147 2 13 3 27 3 42 0 9-12 11-15 2-12-49-19-112-19-190 0-68 4-128 19-169 10-29 28-47 54-57 8-3 12 7 0 11z"/>
    <path fill="#111827" opacity="0.18" d="M151 178c18 9 31 24 39 46 12 35 16 91 17 168 1 39-4 88-14 147-2 13-3 27-3 42 0 9 12 11 15 2 12-49 19-112 19-190 0-68-4-128-19-169-10-29-28-47-54-57-8-3-12 7 0 11z"/>
    <circle cx="130" cy="82" r="42" fill="none" stroke="#f8fafc" stroke-opacity="0.22" stroke-width="3"/>
    <path d="M88 217c28 12 56 12 84 0M75 444c35 12 74 12 110 0M104 329c17 5 35 5 52 0" fill="none" stroke="#f8fafc" stroke-opacity="0.16" stroke-width="3" stroke-linecap="round"/>
  </g>
</svg>
